<?xml version="1.0" encoding="utf-8"?><svg viewBox="0 0 448 512" xmlns="http://www.w3.org/2000/svg" xmlns:xlink="http://www.w3.org/1999/xlink"><style>:root>svg{display:none}:root>svg:target{display:block}</style><svg preserveAspectRatio="xMidYMid" viewBox="0 0 18.94 16.969" id="cart" xmlns="http://www.w3.org/2000/svg"><path d="M18.936 3.932l-2.123 7.956a.594.594 0 01-.573.44H5.885a.044.044 0 00-.023 0c-1.329.001-2.205.493-2.68 1.509a.593.593 0 01-1.073-.502c.579-1.239 1.627-1.973 3.054-2.151L4.108 5.793a.592.592 0 111.163-.227l1.091 5.578h9.423l1.807-6.771H4.29A4.354 4.354 0 01.007.68.591.591 0 111.178.505a3.165 3.165 0 003.115 2.682h14.07a.593.593 0 01.573.745zM5.527 12.831h.006A2.065 2.065 0 017.602 14.9a2.066 2.066 0 01-1.277 1.917 2.067 2.067 0 01-2.26-.446 2.066 2.066 0 01-.453-2.26 2.068 2.068 0 011.915-1.28zm-.626 2.702a.89.89 0 10.632-1.518h-.004a.887.887 0 00-.628 1.518zm9.017-2.702c.546-.04 1.08.218 1.468.603.392.393.607.912.607 1.466a2.065 2.065 0 01-1.274 1.917 2.064 2.064 0 01-2.262-.446 2.065 2.065 0 01-.452-2.26 2.064 2.064 0 011.913-1.28zm-.625 2.702a.889.889 0 10.631-1.518h-.001c-.331.032-.685.215-.823.548a.885.885 0 00.193.97z" class="acls-1"/></svg><svg preserveAspectRatio="xMidYMid" viewBox="0 0 20.03 20.031" id="dots" xmlns="http://www.w3.org/2000/svg"><defs><style>.bcls-1{fill:#fff;fill-rule:evenodd}</style></defs><path d="M17.883 12.156a2.145 2.145 0 01-2.146-2.147c0-1.186.959-2.145 2.146-2.145 1.187 0 2.146.959 2.146 2.145a2.145 2.145 0 01-2.146 2.147zm0-7.869a2.144 2.144 0 01-2.146-2.146c0-1.187.959-2.146 2.146-2.146 1.187 0 2.146.959 2.146 2.146a2.144 2.144 0 01-2.146 2.146zm-7.869 15.737a2.145 2.145 0 112.146-2.146 2.144 2.144 0 01-2.146 2.146zm0-7.868a2.145 2.145 0 110-4.292c1.187 0 2.146.959 2.146 2.145a2.145 2.145 0 01-2.146 2.147zm0-7.869a2.144 2.144 0 01-2.146-2.146c0-1.187.96-2.146 2.146-2.146 1.187 0 2.146.959 2.146 2.146a2.144 2.144 0 01-2.146 2.146zM2.146 20.024A2.144 2.144 0 010 17.878c0-1.186.959-2.146 2.146-2.146 1.187 0 2.146.96 2.146 2.146a2.144 2.144 0 01-2.146 2.146zm0-7.868A2.145 2.145 0 010 10.009c0-1.186.959-2.145 2.146-2.145 1.187 0 2.146.959 2.146 2.145a2.145 2.145 0 01-2.146 2.147zm0-7.869A2.144 2.144 0 010 2.141C0 .954.959-.005 2.146-.005c1.187 0 2.146.959 2.146 2.146a2.144 2.144 0 01-2.146 2.146zm15.737 11.445c1.187 0 2.146.96 2.146 2.146a2.144 2.144 0 01-2.146 2.146 2.144 2.144 0 01-2.146-2.146c0-1.186.959-2.146 2.146-2.146z" class="bcls-1"/></svg><svg preserveAspectRatio="xMidYMid" viewBox="0 0 17.87 15.531" id="heart" xmlns="http://www.w3.org/2000/svg"><path d="M8.943 15.526a.698.698 0 01-.28-.057C8.31 15.32.013 11.72.013 4.71.104 2.06 2.22.002 4.831.002c1.743 0 3.266.918 4.112 2.31a4.796 4.796 0 014.112-2.31c2.609 0 4.725 2.058 4.817 4.684 0 7.034-8.297 10.634-8.649 10.783a.701.701 0 01-.28.057zM4.831 1.387c-1.847 0-3.343 1.47-3.408 3.347 0 5.407 6.125 8.662 7.52 9.334 1.395-.672 7.52-3.93 7.52-9.358-.065-1.853-1.563-3.323-3.408-3.323s-3.342 1.47-3.408 3.347a.699.699 0 01-.704.669.7.7 0 01-.705-.669c-.064-1.877-1.561-3.347-3.407-3.347z" class="ccls-1"/></svg><svg preserveAspectRatio="xMidYMid" viewBox="0 0 10 5" id="icon-angle-down" xmlns="http://www.w3.org/2000/svg"><defs><style>.dcls-1{fill:#8d8d8d;fill-rule:evenodd}</style></defs><path d="M4.983 4.999a.756.756 0 01-.496-.179L.173 1.048a.56.56 0 010-.869.779.779 0 01.994 0l3.816 3.337L8.8.18a.776.776 0 01.994 0 .561.561 0 010 .868L5.48 4.82a.752.752 0 01-.497.179z" class="dcls-1"/></svg><svg preserveAspectRatio="xMidYMid" viewBox="0 0 22 9" id="icon-arr-right" xmlns="http://www.w3.org/2000/svg"><path d="M.296 5.472H.288h16.956l-.1 2.857a.284.284 0 00-.084.205c0 .077.029.151.084.205l.172.172a.285.285 0 00.407.002l4.193-4.211a.292.292 0 000-.409L17.723.08a.29.29 0 00-.407 0l-.172.173a.287.287 0 000 .405l.113 2.865H.292A.297.297 0 000 3.818v1.37c0 .159.137.284.296.284z" class="ecls-1"/></svg><svg preserveAspectRatio="xMidYMid" viewBox="0 0 22 9" id="icon-arrow-left" xmlns="http://www.w3.org/2000/svg"><defs><style>.fcls-1{fill:#a3bbc8;fill-rule:evenodd}</style></defs><path d="M21.704 3.526l.008.003H4.756l.1-2.859a.29.29 0 000-.409L4.684.087a.29.29 0 00-.408 0L.084 4.298a.292.292 0 000 .409L4.276 8.92a.293.293 0 00.408 0l.172-.174a.287.287 0 00.084-.204.278.278 0 00-.084-.2l-.113-2.864h16.965A.3.3 0 0022 5.181V3.812a.293.293 0 00-.296-.286z" class="fcls-1"/></svg><svg preserveAspectRatio="xMidYMid" viewBox="0 0 22 9" id="icon-arrow-right" xmlns="http://www.w3.org/2000/svg"><defs><style>.gcls-1{fill:#a3bbc8;fill-rule:evenodd}</style></defs><path d="M.296 5.473l-.008-.002h16.956l-.1 2.858a.289.289 0 00-.084.205c0 .078.029.15.084.205l.172.173a.285.285 0 00.204.084.288.288 0 00.204-.083l4.192-4.212a.29.29 0 000-.408L17.724.08a.288.288 0 00-.204-.083.288.288 0 00-.204.083l-.172.174a.28.28 0 00-.084.204.27.27 0 00.084.199l.113 2.865H.292A.298.298 0 000 3.818v1.37c0 .159.137.285.296.285z" class="gcls-1"/></svg><svg aria-hidden="true" data-prefix="fas" data-icon="calendar-alt" class="hsvg-inline--fa hfa-calendar-alt hfa-w-14" viewBox="0 0 448 512" id="icon-calendar" xmlns="http://www.w3.org/2000/svg"><path fill="#222933" d="M0 464c0 26.5 21.5 48 48 48h352c26.5 0 48-21.5 48-48V192H0v272zm320-196c0-6.6 5.4-12 12-12h40c6.6 0 12 5.4 12 12v40c0 6.6-5.4 12-12 12h-40c-6.6 0-12-5.4-12-12v-40zm0 128c0-6.6 5.4-12 12-12h40c6.6 0 12 5.4 12 12v40c0 6.6-5.4 12-12 12h-40c-6.6 0-12-5.4-12-12v-40zM192 268c0-6.6 5.4-12 12-12h40c6.6 0 12 5.4 12 12v40c0 6.6-5.4 12-12 12h-40c-6.6 0-12-5.4-12-12v-40zm0 128c0-6.6 5.4-12 12-12h40c6.6 0 12 5.4 12 12v40c0 6.6-5.4 12-12 12h-40c-6.6 0-12-5.4-12-12v-40zM64 268c0-6.6 5.4-12 12-12h40c6.6 0 12 5.4 12 12v40c0 6.6-5.4 12-12 12H76c-6.6 0-12-5.4-12-12v-40zm0 128c0-6.6 5.4-12 12-12h40c6.6 0 12 5.4 12 12v40c0 6.6-5.4 12-12 12H76c-6.6 0-12-5.4-12-12v-40zM400 64h-48V16c0-8.8-7.2-16-16-16h-32c-8.8 0-16 7.2-16 16v48H160V16c0-8.8-7.2-16-16-16h-32c-8.8 0-16 7.2-16 16v48H48C21.5 64 0 85.5 0 112v48h448v-48c0-26.5-21.5-48-48-48z"/></svg><svg preserveAspectRatio="xMidYMid" viewBox="0 0 53.56 52.25" id="icon-card" xmlns="http://www.w3.org/2000/svg"><defs><style>.icls-1,.icls-2{fill:#a3bbc8}.icls-1{fill-rule:evenodd}.icls-2{opacity:.34}</style></defs><path d="M40.132 25.83a.836.836 0 01-.836-.836v-2.041a3.1 3.1 0 01-2.257-2.979 3.098 3.098 0 013.093-3.095 3.097 3.097 0 013.092 3.095 3.1 3.1 0 01-2.257 2.979v2.041a.835.835 0 01-.835.836zm1.42-5.856c0-.783-.637-1.422-1.42-1.422a1.423 1.423 0 000 2.844c.783 0 1.42-.637 1.42-1.422zm6.732 2.353c.462 0 .836.374.836.836v3.186a3.046 3.046 0 01-3.042 3.044H34.184a3.045 3.045 0 01-3.041-3.044V15.602a3.05 3.05 0 012.393-2.975V6.611c0-3.641 2.959-6.603 6.595-6.603 3.637 0 6.595 2.962 6.595 6.603v6.016a3.048 3.048 0 012.394 2.974v4.773a.836.836 0 11-1.672 0v-4.773c0-.755-.614-1.371-1.37-1.371H34.184c-.755 0-1.369.616-1.369 1.371v10.748c0 .756.614 1.371 1.369 1.371h11.894c.756 0 1.37-.615 1.37-1.371v-3.186c0-.462.375-.836.836-.836zm-13.076-9.77h9.846V6.611a4.93 4.93 0 00-4.923-4.929 4.93 4.93 0 00-4.923 4.929v5.946zM5.461 34.818h8.185a.836.836 0 01-.001 1.673H5.461a.836.836 0 110-1.673zm0-3.992h14.271a.837.837 0 010 1.674H5.461a.836.836 0 010-1.674zm23.509-9.881H14.754a.837.837 0 010-1.674H28.97a.836.836 0 010 1.674zm0 7.142H1.679v11.92c0 1.193.971 2.165 2.163 2.165h39.335a2.167 2.167 0 002.162-2.165v-8.266a.837.837 0 011.672 0v8.266a3.84 3.84 0 01-3.834 3.837H3.842a3.84 3.84 0 01-3.834-3.837v-23.62a3.841 3.841 0 013.834-3.839H28.97a.836.836 0 010 1.673H3.842a2.168 2.168 0 00-2.163 2.166v2.884h9.869a.837.837 0 010 1.673H1.679v5.47H28.97a.836.836 0 010 1.673z" class="icls-1"/><circle cx="43.75" cy="42.45" r="9.81" class="icls-2"/></svg><svg preserveAspectRatio="xMidYMid" viewBox="0 0 15 15" id="icon-grid" xmlns="http://www.w3.org/2000/svg"><path fill="#b3b3b3" d="M0 3.75h3.75V0H0v3.75zM5.625 15h3.75v-3.75h-3.75V15zM0 15h3.75v-3.75H0V15zm0-5.625h3.75v-3.75H0v3.75zm5.625 0h3.75v-3.75h-3.75v3.75zM11.25 0v3.75H15V0h-3.75zM5.625 3.75h3.75V0h-3.75v3.75zm5.625 5.625H15v-3.75h-3.75v3.75zm0 5.625H15v-3.75h-3.75V15z" class="jcls-1"/></svg><svg preserveAspectRatio="xMidYMid" viewBox="0 0 20 15" id="icon-list" xmlns="http://www.w3.org/2000/svg"><path fill="#b3b3b3" d="M5.835 14.998v-4.171h14.159v4.171H5.835zm0-9.585h14.159v4.172H5.835V5.413zm0-5.413h14.159v4.172H5.835V0zM.007 10.827h4.422v4.171H.007v-4.171zm0-5.414h4.422v4.172H.007V5.413zM.007 0h4.422v4.172H.007V0z" class="kcls-1"/></svg><svg preserveAspectRatio="xMidYMid" viewBox="0 0 50.875 53.13" id="icon-support" xmlns="http://www.w3.org/2000/svg"><defs><style>.lcls-1,.lcls-2{fill:#a3bbc8;fill-rule:evenodd}.lcls-1{opacity:.34}</style></defs><path d="M41.078 33.504c5.411 0 9.797 4.393 9.797 9.812s-4.386 9.813-9.797 9.813c-5.41 0-9.797-4.394-9.797-9.813 0-5.419 4.387-9.812 9.797-9.812z" class="lcls-1"/><path d="M24.557 49.116A24.349 24.349 0 019.829 44.21a.937.937 0 111.125-1.499 22.49 22.49 0 0013.603 4.529c12.506 0 22.681-10.174 22.681-22.68 0-4.254-1.184-8.399-3.424-11.988a.939.939 0 011.592-.993 24.5 24.5 0 013.707 12.981c0 13.54-11.016 24.556-24.556 24.556zm9.32-13.722a.939.939 0 01-.938-.938v-5.5h-6.938a.94.94 0 01-.805-1.419l7.875-13.188a.938.938 0 011.742.472l.001.008v7.609a.937.937 0 11-1.875 0v-4.21l-5.286 8.852h5.286v-1.516a.938.938 0 011.875 0v1.516h2.601a.938.938 0 010 1.876h-2.601v5.5c0 .517-.42.938-.937.938zM17.469 15.767a3.973 3.973 0 00-3.969 3.969.938.938 0 01-1.875 0 5.85 5.85 0 015.844-5.844 5.851 5.851 0 015.844 5.844 12.7 12.7 0 01-3.744 9.039l-4.743 4.743h7.55a.938.938 0 01-.001 1.876h-9.813a.938.938 0 01-.663-1.601l6.344-6.343c2.06-2.06 3.195-4.8 3.195-7.714a3.974 3.974 0 00-3.969-3.969zm24.457-6.299l-4.06.096h-.023a.937.937 0 01-.022-1.874l1.843-.043a22.758 22.758 0 00-15.107-5.768c-12.506 0-22.681 10.175-22.681 22.681 0 6.14 2.415 11.891 6.799 16.193a.936.936 0 11-1.312 1.338C2.616 37.435.001 31.208.001 24.56.001 11.02 11.017.004 24.557.004c3.485 0 6.853.715 10.01 2.126a24.43 24.43 0 016.345 4.112l-.042-1.749a.939.939 0 011.875-.045l.096 4.061a.937.937 0 01-.915.959z" class="lcls-2"/></svg><svg preserveAspectRatio="xMidYMid" viewBox="0 0 6.1 10.97" id="icon-to-right" xmlns="http://www.w3.org/2000/svg"><defs><style>.mcls-1{fill:#262626;fill-rule:evenodd}</style></defs><path d="M.553 10.967a.557.557 0 01-.411-.183.602.602 0 01.022-.831l4.547-4.475L.164 1.004A.602.602 0 01.142.173.552.552 0 01.943.15L5.92 5.048l.014.014a.545.545 0 01.113.169h.001a.611.611 0 01.052.244v.003a.609.609 0 01-.053.249l-.001.001v.002a.594.594 0 01-.111.164l-.015.014-4.977 4.899a.551.551 0 01-.39.16z" class="mcls-1"/></svg><svg preserveAspectRatio="xMidYMid" viewBox="0 0 53.75 36.44" id="icon-truck" xmlns="http://www.w3.org/2000/svg"><defs><style>.ncls-1,.ncls-2{fill:#a3bbc8}.ncls-1{fill-rule:evenodd}.ncls-2{opacity:.34}</style></defs><path d="M45.968 17.252v1.992a.786.786 0 01-1.571 0v-1.992a.786.786 0 111.571 0zM35.944 13.53V6.14c0-.434.351-.786.785-.786h4.301a4.945 4.945 0 014.938 4.941v3.235a.786.786 0 01-.786.787h-8.453a.785.785 0 01-.785-.787zm1.571-.786h6.882v-2.449a3.371 3.371 0 00-3.367-3.368h-3.515v5.817zm10.809 12.423h-2.782a4.984 4.984 0 01-4.912 4.192 4.983 4.983 0 01-4.912-4.192H24.466a4.982 4.982 0 01-4.911 4.192 4.983 4.983 0 01-4.912-4.192h-2.419a.786.786 0 01-.785-.787V.794c0-.434.351-.786.785-.786h6.046a.786.786 0 010 1.572h-5.261v22.014h1.634a4.983 4.983 0 014.912-4.193 4.982 4.982 0 014.911 4.193h8.336v-1.125a.786.786 0 111.571 0v1.125h1.345a4.983 4.983 0 014.912-4.193 4.983 4.983 0 014.912 4.193h1.997V10.295c0-3.591-2.92-6.513-6.509-6.513h-6.657V18.8a.786.786 0 01-1.571 0V1.58h-11.39a.785.785 0 010-1.572h12.175c.434 0 .786.352.786.786v1.415h6.657c4.455 0 8.079 3.628 8.079 8.086V24.38a.786.786 0 01-.785.787zm-28.769-4.193a3.409 3.409 0 00-3.404 3.406 3.41 3.41 0 003.404 3.407 3.409 3.409 0 003.403-3.407 3.409 3.409 0 00-3.403-3.406zm21.075 0a3.408 3.408 0 00-3.403 3.406v.001a3.409 3.409 0 003.403 3.406 3.41 3.41 0 003.404-3.407 3.409 3.409 0 00-3.404-3.406zm0 5.433a2.028 2.028 0 01-2.025-2.027c0-1.117.909-2.026 2.025-2.026a2.028 2.028 0 010 4.053zm0-2.481a.454.454 0 100 .909.454.454 0 000-.909zm-21.075 2.481a2.028 2.028 0 010-4.053 2.027 2.027 0 010 4.053zm0-2.481a.455.455 0 10-.001.909.455.455 0 00.001-.909zM9.527 17.352H3.925a.786.786 0 010-1.572h5.602a.785.785 0 010 1.572zM9.003 6.346H2.877a.786.786 0 010-1.572h6.126a.786.786 0 110 1.572zm-.785 5.503a.786.786 0 01-.785.786H.783a.785.785 0 010-1.572h6.65c.433 0 .785.352.785.786zM.783 22.069H4.17a.786.786 0 010 1.573H.783a.786.786 0 010-1.573zm6.006 0h.644a.786.786 0 010 1.573h-.644a.787.787 0 010-1.573z" class="ncls-1"/><circle cx="43.938" cy="26.645" r="9.813" class="ncls-2"/></svg><svg aria-hidden="true" data-prefix="fas" data-icon="user" class="osvg-inline--fa ofa-user ofa-w-14" viewBox="0 0 448 512" id="icon-user" xmlns="http://www.w3.org/2000/svg"><path fill="#222933" d="M224 256c70.7 0 128-57.3 128-128S294.7 0 224 0 96 57.3 96 128s57.3 128 128 128zm89.6 32h-16.7c-22.2 10.2-46.9 16-72.9 16s-50.6-5.8-72.9-16h-16.7C60.2 288 0 348.2 0 422.4V464c0 26.5 21.5 48 48 48h352c26.5 0 48-21.5 48-48v-41.6c0-74.2-60.2-134.4-134.4-134.4z"/></svg><svg aria-hidden="true" data-prefix="fas" data-icon="user" class="psvg-inline--fa pfa-user pfa-w-14" viewBox="0 0 448 512" id="icon-user-grey" xmlns="http://www.w3.org/2000/svg"><path fill="green" d="M224 256c70.7 0 128-57.3 128-128S294.7 0 224 0 96 57.3 96 128s57.3 128 128 128zm89.6 32h-16.7c-22.2 10.2-46.9 16-72.9 16s-50.6-5.8-72.9-16h-16.7C60.2 288 0 348.2 0 422.4V464c0 26.5 21.5 48 48 48h352c26.5 0 48-21.5 48-48v-41.6c0-74.2-60.2-134.4-134.4-134.4z"/></svg><svg preserveAspectRatio="xMidYMid" viewBox="0 0 127 127" id="play-btn"><circle cx="63.5" cy="63.5" r="63.5" class="qcls-1" fill="#a3bbc8" opacity=".4"/><circle cx="63" cy="63" r="49" class="qcls-2" fill="#a3bbc8"/><path fill="#fff" d="M73.684 64.74L57.64 74.536a3.236 3.236 0 01-3.062.144c-.972-.47-1.579-1.387-1.579-2.385V52.7c0-.999.607-1.917 1.579-2.386a3.24 3.24 0 013.062.143l16.044 9.798c.822.502 1.315 1.343 1.315 2.241 0 .9-.493 1.741-1.315 2.244z" class="qcls-3"/></svg><svg preserveAspectRatio="xMidYMid" viewBox="0 0 15.28 15.281" id="search" xmlns="http://www.w3.org/2000/svg"><path d="M14.601 14.61c-.422.454-1.994 1.415-3.731-.292l-2.058-2.35a6.283 6.283 0 01-2.549.539c-3.468 0-6.278-2.802-6.278-6.257 0-3.456 2.807-6.254 6.275-6.254 3.465 0 6.279 2.801 6.279 6.257 0 .929-.203 1.812-.568 2.604l2.336 2.036c1.703 1.747.746 3.266.294 3.717zM6.26 1.305c-2.742 0-4.965 2.216-4.965 4.948s2.22 4.948 4.965 4.948c2.742 0 4.966-2.216 4.966-4.948S9.002 1.305 6.26 1.305zm7.199 10.561l-2.162-1.88a6.254 6.254 0 01-1.363 1.34l1.872 2.187c.293.324 1.126.867 1.881.226.209-.176.633-1.068-.228-1.873zm-7.685-1.781a4.205 4.205 0 01-2.143-1.131 4.172 4.172 0 01-1.136-2.136c-.065-.354.128-.676.487-.742.356-.065.68.131.746.484.096.582.355 1.067.779 1.489.421.389.942.678 1.494.777.325.066.552.39.487.743a.644.644 0 01-.714.516z" class="rcls-1"/></svg></svg>