<svg xmlns="http://www.w3.org/2000/svg" xmlns:xlink="http://www.w3.org/1999/xlink" preserveAspectRatio="xMidYMid" width="20.03" height="20.031" viewBox="0 0 20.03 20.031">
  <defs>
    <style>
      .cls-1 {
        fill: #fff;
        fill-rule: evenodd;
      }
    </style>
  </defs>
  <path d="M17.883,12.156 C16.696,12.156 15.737,11.196 15.737,10.009 C15.737,8.823 16.696,7.864 17.883,7.864 C19.070,7.864 20.029,8.823 20.029,10.009 C20.029,11.196 19.070,12.156 17.883,12.156 ZM17.883,4.287 C16.696,4.287 15.737,3.328 15.737,2.141 C15.737,0.954 16.696,-0.005 17.883,-0.005 C19.070,-0.005 20.029,0.954 20.029,2.141 C20.029,3.328 19.070,4.287 17.883,4.287 ZM10.014,20.024 C8.828,20.024 7.868,19.065 7.868,17.878 C7.868,16.692 8.828,15.732 10.014,15.732 C11.201,15.732 12.160,16.692 12.160,17.878 C12.160,19.065 11.201,20.024 10.014,20.024 ZM10.014,12.156 C8.828,12.156 7.868,11.196 7.868,10.009 C7.868,8.823 8.828,7.864 10.014,7.864 C11.201,7.864 12.160,8.823 12.160,10.009 C12.160,11.196 11.201,12.156 10.014,12.156 ZM10.014,4.287 C8.828,4.287 7.868,3.328 7.868,2.141 C7.868,0.954 8.828,-0.005 10.014,-0.005 C11.201,-0.005 12.160,0.954 12.160,2.141 C12.160,3.328 11.201,4.287 10.014,4.287 ZM2.146,20.024 C0.959,20.024 -0.000,19.065 -0.000,17.878 C-0.000,16.692 0.959,15.732 2.146,15.732 C3.333,15.732 4.292,16.692 4.292,17.878 C4.292,19.065 3.333,20.024 2.146,20.024 ZM2.146,12.156 C0.959,12.156 -0.000,11.196 -0.000,10.009 C-0.000,8.823 0.959,7.864 2.146,7.864 C3.333,7.864 4.292,8.823 4.292,10.009 C4.292,11.196 3.333,12.156 2.146,12.156 ZM2.146,4.287 C0.959,4.287 -0.000,3.328 -0.000,2.141 C-0.000,0.954 0.959,-0.005 2.146,-0.005 C3.333,-0.005 4.292,0.954 4.292,2.141 C4.292,3.328 3.333,4.287 2.146,4.287 ZM17.883,15.732 C19.070,15.732 20.029,16.692 20.029,17.878 C20.029,19.065 19.070,20.024 17.883,20.024 C16.696,20.024 15.737,19.065 15.737,17.878 C15.737,16.692 16.696,15.732 17.883,15.732 Z" class="cls-1"/>
</svg>
