<svg xmlns="http://www.w3.org/2000/svg" xmlns:xlink="http://www.w3.org/1999/xlink" preserveAspectRatio="xMidYMid" width="17.87" height="15.531" viewBox="0 0 17.87 15.531">  
  <path d="M8.943,15.526 C8.848,15.526 8.752,15.508 8.663,15.469 C8.310,15.320 0.013,11.720 0.013,4.710 C0.104,2.060 2.220,0.002 4.831,0.002 C6.574,0.002 8.097,0.920 8.943,2.312 C9.790,0.920 11.312,0.002 13.055,0.002 C15.664,0.002 17.780,2.060 17.872,4.686 C17.872,11.720 9.575,15.320 9.223,15.469 C9.133,15.508 9.038,15.526 8.943,15.526 ZM4.831,1.387 C2.984,1.387 1.488,2.857 1.423,4.734 C1.423,10.141 7.548,13.396 8.943,14.068 C10.338,13.396 16.463,10.138 16.463,4.710 C16.398,2.857 14.900,1.387 13.055,1.387 C11.210,1.387 9.713,2.857 9.647,4.734 C9.635,5.106 9.323,5.403 8.943,5.403 L8.943,5.403 C8.563,5.403 8.251,5.106 8.238,4.734 C8.174,2.857 6.677,1.387 4.831,1.387 Z" class="cls-1"/>
</svg>
