<svg xmlns="http://www.w3.org/2000/svg" xmlns:xlink="http://www.w3.org/1999/xlink" preserveAspectRatio="xMidYMid" width="37" height="33.968" viewBox="0 0 37 33.968">  
  <path fill="#a3bbc8" d="M36.053,33.932 L0.976,33.980 L0.975,33.980 C0.724,33.980 0.484,33.882 0.306,33.708 C0.128,33.534 0.028,33.296 0.028,33.049 L-0.000,12.848 C-0.000,12.842 0.001,12.837 0.001,12.831 C0.005,12.540 0.147,12.256 0.409,12.077 L5.731,8.461 L5.731,4.623 C5.731,4.109 6.155,3.691 6.679,3.691 L12.746,3.691 L17.963,0.145 C18.288,-0.076 18.718,-0.075 19.042,0.146 L24.227,3.691 L30.320,3.691 C30.843,3.691 31.267,4.109 31.267,4.623 L31.267,8.505 L36.564,12.126 C36.753,12.256 36.880,12.441 36.937,12.645 C36.958,12.691 36.971,12.774 36.971,12.829 L36.999,32.999 C37.000,33.512 36.576,33.931 36.053,33.932 ZM33.226,32.072 L18.514,20.848 L3.748,32.113 L33.226,32.072 ZM5.731,10.724 L2.613,12.844 L5.731,14.965 L5.731,10.724 ZM1.897,14.625 L1.920,31.148 L13.363,22.418 L1.897,14.625 ZM18.500,2.046 L16.079,3.691 L20.907,3.691 L18.500,2.046 ZM29.372,5.555 L7.626,5.555 L7.626,16.252 L14.934,21.220 L17.933,18.932 C18.278,18.669 18.749,18.678 19.081,18.924 C19.086,18.927 19.090,18.929 19.094,18.932 L22.071,21.204 L29.372,16.211 L29.372,5.555 ZM31.267,10.775 L31.267,14.916 L34.295,12.845 L31.267,10.775 ZM35.078,14.579 L23.640,22.400 L35.101,31.144 L35.078,14.579 ZM11.137,15.061 C11.137,14.547 11.561,14.129 12.085,14.129 L24.915,14.129 C25.437,14.129 25.861,14.547 25.861,15.061 C25.861,15.576 25.437,15.994 24.915,15.994 L12.085,15.994 C11.561,15.994 11.137,15.576 11.137,15.061 ZM24.915,11.147 L12.085,11.147 C11.561,11.147 11.137,10.729 11.137,10.215 C11.137,9.701 11.561,9.283 12.085,9.283 L24.915,9.283 C25.437,9.283 25.861,9.701 25.861,10.215 C25.861,10.729 25.437,11.147 24.915,11.147 Z" class="cls-1"/>
</svg>
