<svg xmlns="http://www.w3.org/2000/svg" xmlns:xlink="http://www.w3.org/1999/xlink" preserveAspectRatio="xMidYMid" width="31" height="44" viewBox="0 0 31 44">  
  <path fill="#a3bbc8" d="M30.525,43.047 C30.035,43.547 29.303,43.687 28.662,43.402 L22.997,40.892 L16.403,43.809 C16.116,43.937 15.808,44.000 15.500,44.000 C15.191,44.000 14.883,43.937 14.597,43.809 L8.013,40.892 L2.339,43.402 C1.697,43.687 0.965,43.547 0.475,43.047 C-0.015,42.547 -0.138,41.817 0.162,41.185 L5.156,30.669 C5.262,30.446 5.439,30.266 5.661,30.156 C6.205,29.885 6.869,30.104 7.142,30.647 C7.307,30.978 7.290,31.353 7.128,31.656 L2.785,40.800 L7.105,38.886 C7.679,38.631 8.338,38.632 8.911,38.887 L15.494,41.803 C15.494,41.803 15.501,41.803 15.504,41.803 C15.505,41.803 15.505,41.803 15.505,41.803 L22.090,38.886 C22.661,38.631 23.319,38.631 23.894,38.886 L28.214,40.800 L23.872,31.655 C23.653,31.248 23.709,30.731 24.046,30.380 C24.431,29.978 25.047,29.930 25.487,30.244 C25.638,30.352 25.762,30.497 25.844,30.668 L30.838,41.186 C31.137,41.817 31.015,42.546 30.525,43.047 ZM27.897,20.283 L18.349,36.210 C17.745,37.219 16.680,37.821 15.500,37.821 C14.320,37.821 13.254,37.219 12.650,36.210 L3.102,20.283 C3.091,20.263 3.079,20.242 3.069,20.221 C2.056,18.253 1.527,16.037 1.540,13.810 C1.563,10.168 3.004,6.727 5.601,4.121 C8.197,1.515 11.643,0.052 15.302,0.001 C19.069,-0.051 22.621,1.370 25.301,4.002 C27.982,6.633 29.459,10.146 29.459,13.894 C29.459,16.123 28.945,18.251 27.931,20.221 C27.920,20.242 27.908,20.263 27.897,20.283 ZM23.752,5.564 C21.537,3.390 18.613,2.196 15.505,2.196 C15.448,2.196 15.390,2.197 15.333,2.198 C8.982,2.285 3.785,7.501 3.747,13.823 C3.735,15.714 4.163,17.519 5.016,19.189 L14.545,35.085 C14.837,35.572 15.310,35.625 15.500,35.625 C15.690,35.625 16.163,35.572 16.455,35.085 L25.983,19.189 C26.826,17.540 27.253,15.759 27.253,13.894 C27.253,10.739 26.009,7.781 23.752,5.564 ZM15.500,18.921 C12.715,18.921 10.449,16.667 10.449,13.894 C10.449,11.122 12.715,8.868 15.500,8.868 C18.285,8.868 20.551,11.122 20.551,13.894 C20.551,16.667 18.285,18.921 15.500,18.921 ZM15.500,11.064 C13.932,11.064 12.655,12.334 12.655,13.894 C12.655,15.456 13.932,16.726 15.500,16.726 C17.069,16.726 18.344,15.456 18.344,13.894 C18.344,12.334 17.069,11.064 15.500,11.064 Z" class="cls-1"/>
</svg>
