<svg xmlns="http://www.w3.org/2000/svg" xmlns:xlink="http://www.w3.org/1999/xlink" preserveAspectRatio="xMidYMid" width="18" height="14.81" viewBox="0 0 18 14.81">
  <!-- <defs>
    <style>
      .cls-1 {
        fill: #436372;
        fill-rule: evenodd;
      }
    </style>
  </defs> -->
  <path d="M16.714,12.328 L5.766,12.328 L3.303,14.690 C3.221,14.768 3.111,14.810 3.000,14.810 C2.945,14.810 2.889,14.800 2.836,14.779 C2.676,14.715 2.571,14.565 2.571,14.399 L2.571,12.328 L1.286,12.328 C0.577,12.328 -0.000,11.775 -0.000,11.095 L-0.000,1.234 C-0.000,0.554 0.577,0.001 1.286,0.001 L16.714,0.001 C17.423,0.001 18.000,0.554 18.000,1.234 L18.000,11.095 C18.000,11.775 17.423,12.328 16.714,12.328 ZM17.143,1.234 C17.143,1.007 16.950,0.823 16.714,0.823 L1.286,0.823 C1.049,0.823 0.857,1.007 0.857,1.234 L0.857,11.095 C0.857,11.322 1.049,11.506 1.286,11.506 L3.000,11.506 C3.237,11.506 3.428,11.690 3.428,11.917 L3.428,13.407 L5.285,11.627 C5.366,11.550 5.475,11.506 5.588,11.506 L16.714,11.506 C16.950,11.506 17.143,11.322 17.143,11.095 L17.143,1.234 ZM12.343,6.781 C11.988,6.781 11.700,6.505 11.700,6.165 C11.700,5.824 11.988,5.548 12.343,5.548 C12.698,5.548 12.986,5.824 12.986,6.165 C12.986,6.505 12.698,6.781 12.343,6.781 ZM9.000,6.781 C8.645,6.781 8.357,6.505 8.357,6.165 C8.357,5.824 8.645,5.548 9.000,5.548 C9.355,5.548 9.643,5.824 9.643,6.165 C9.643,6.505 9.355,6.781 9.000,6.781 ZM5.414,6.781 C5.059,6.781 4.772,6.505 4.772,6.165 C4.772,5.824 5.059,5.548 5.414,5.548 C5.769,5.548 6.057,5.824 6.057,6.165 C6.057,6.505 5.769,6.781 5.414,6.781 Z" class="cls-1"/>
</svg>
