<svg xmlns="http://www.w3.org/2000/svg" xmlns:xlink="http://www.w3.org/1999/xlink" preserveAspectRatio="xMidYMid" width="37" height="44" viewBox="0 0 37 44">  
  <path fill="#a3bbc8" d="M31.941,21.338 C29.151,21.338 26.881,19.098 26.881,16.343 C26.881,13.589 29.151,11.348 31.941,11.348 C34.730,11.348 37.000,13.589 37.000,16.343 C37.000,19.098 34.730,21.338 31.941,21.338 ZM31.941,13.298 C30.240,13.298 28.857,14.664 28.857,16.343 C28.857,18.023 30.240,19.388 31.941,19.388 C33.641,19.388 35.025,18.023 35.025,16.343 C35.025,14.664 33.641,13.298 31.941,13.298 ZM31.941,10.002 C29.151,10.002 26.881,7.761 26.881,5.007 C26.881,2.252 29.151,0.012 31.941,0.012 C34.730,0.012 37.000,2.252 37.000,5.007 C37.000,7.761 34.730,10.002 31.941,10.002 ZM31.941,1.961 C30.240,1.961 28.857,3.328 28.857,5.007 C28.857,6.686 30.240,8.053 31.941,8.053 C33.641,8.053 35.025,6.686 35.025,5.007 C35.025,3.328 33.641,1.961 31.941,1.961 ZM18.499,44.011 C15.710,44.011 13.440,41.770 13.440,39.016 C13.440,36.262 15.710,34.021 18.499,34.021 C21.289,34.021 23.559,36.262 23.559,39.016 C23.559,41.771 21.289,44.011 18.499,44.011 ZM18.499,35.971 C16.799,35.971 15.415,37.337 15.415,39.016 C15.415,40.695 16.799,42.061 18.499,42.061 C20.200,42.061 21.585,40.695 21.585,39.016 C21.585,37.337 20.200,35.971 18.499,35.971 ZM18.499,32.675 C15.710,32.675 13.440,30.434 13.440,27.680 C13.440,24.925 15.710,22.685 18.499,22.685 C21.289,22.685 23.559,24.925 23.559,27.680 C23.559,30.434 21.289,32.675 18.499,32.675 ZM18.499,24.634 C16.799,24.634 15.415,26.001 15.415,27.680 C15.415,29.359 16.799,30.726 18.499,30.726 C20.200,30.726 21.585,29.359 21.585,27.680 C21.585,26.001 20.200,24.634 18.499,24.634 ZM18.499,21.338 C15.710,21.338 13.440,19.098 13.440,16.343 C13.440,13.589 15.710,11.348 18.499,11.348 C21.289,11.348 23.559,13.589 23.559,16.343 C23.559,19.098 21.289,21.338 18.499,21.338 ZM18.499,13.298 C16.799,13.298 15.415,14.664 15.415,16.343 C15.415,18.023 16.799,19.388 18.499,19.388 C20.200,19.388 21.585,18.023 21.585,16.343 C21.585,14.664 20.200,13.298 18.499,13.298 ZM18.499,10.002 C15.710,10.002 13.440,7.761 13.440,5.007 C13.440,2.252 15.710,0.012 18.499,0.012 C21.289,0.012 23.559,2.252 23.559,5.007 C23.559,7.761 21.289,10.002 18.499,10.002 ZM18.499,1.961 C16.799,1.961 15.415,3.328 15.415,5.007 C15.415,6.686 16.799,8.053 18.499,8.053 C20.200,8.053 21.585,6.686 21.585,5.007 C21.585,3.328 20.200,1.961 18.499,1.961 ZM5.059,32.675 C2.269,32.675 -0.000,30.434 -0.000,27.680 C-0.000,24.925 2.269,22.685 5.059,22.685 C7.849,22.685 10.118,24.925 10.118,27.680 C10.118,30.434 7.849,32.675 5.059,32.675 ZM5.059,24.634 C3.358,24.634 1.974,26.001 1.974,27.680 C1.974,29.359 3.358,30.726 5.059,30.726 C6.760,30.726 8.143,29.359 8.143,27.680 C8.143,26.001 6.760,24.634 5.059,24.634 ZM5.059,21.338 C2.269,21.338 -0.000,19.098 -0.000,16.343 C-0.000,13.589 2.269,11.348 5.059,11.348 C7.849,11.348 10.118,13.589 10.118,16.343 C10.118,19.098 7.849,21.338 5.059,21.338 ZM5.059,13.298 C3.358,13.298 1.974,14.664 1.974,16.343 C1.974,18.023 3.358,19.388 5.059,19.388 C6.760,19.388 8.143,18.023 8.143,16.343 C8.143,14.664 6.760,13.298 5.059,13.298 ZM5.059,10.002 C2.269,10.002 -0.000,7.761 -0.000,5.007 C-0.000,2.252 2.269,0.012 5.059,0.012 C7.849,0.012 10.118,2.252 10.118,5.007 C10.118,7.761 7.849,10.002 5.059,10.002 ZM5.059,1.961 C3.358,1.961 1.974,3.328 1.974,5.007 C1.974,6.686 3.358,8.053 5.059,8.053 C6.760,8.053 8.143,6.686 8.143,5.007 C8.143,3.328 6.760,1.961 5.059,1.961 ZM31.941,22.685 C34.730,22.685 37.000,24.925 37.000,27.680 C37.000,30.434 34.730,32.675 31.941,32.675 C29.151,32.675 26.881,30.434 26.881,27.680 C26.881,24.925 29.151,22.685 31.941,22.685 ZM31.941,30.726 C33.641,30.726 35.025,29.359 35.025,27.680 C35.025,26.001 33.641,24.634 31.941,24.634 C30.240,24.634 28.857,26.001 28.857,27.680 C28.857,29.359 30.240,30.726 31.941,30.726 Z" class="cls-1"/>
</svg>
