<svg xmlns="http://www.w3.org/2000/svg" xmlns:xlink="http://www.w3.org/1999/xlink" preserveAspectRatio="xMidYMid" width="15.28" height="15.281" viewBox="0 0 15.28 15.281">  
  <path d="M14.601,14.610 C14.179,15.064 12.607,16.025 10.870,14.318 L8.812,11.968 C8.032,12.313 7.171,12.507 6.263,12.507 C2.795,12.507 -0.015,9.705 -0.015,6.250 C-0.015,2.794 2.792,-0.004 6.260,-0.004 C9.725,-0.004 12.539,2.797 12.539,6.253 C12.539,7.182 12.336,8.065 11.971,8.857 L14.307,10.893 C16.010,12.640 15.053,14.159 14.601,14.610 ZM6.260,1.305 C3.518,1.305 1.295,3.521 1.295,6.253 C1.295,8.985 3.515,11.201 6.260,11.201 C9.002,11.201 11.226,8.985 11.226,6.253 C11.226,3.521 9.002,1.305 6.260,1.305 ZM13.459,11.866 L11.297,9.986 C10.914,10.498 10.455,10.953 9.934,11.326 L11.806,13.513 C12.099,13.837 12.932,14.380 13.687,13.739 C13.896,13.563 14.320,12.671 13.459,11.866 ZM5.774,10.085 C4.963,9.923 4.217,9.535 3.631,8.954 C3.048,8.373 2.658,7.627 2.495,6.818 C2.430,6.464 2.623,6.142 2.982,6.076 C3.338,6.011 3.662,6.207 3.728,6.560 C3.824,7.142 4.083,7.627 4.507,8.049 C4.928,8.438 5.449,8.727 6.001,8.826 C6.326,8.892 6.553,9.216 6.488,9.569 C6.422,9.893 6.129,10.125 5.774,10.085 Z" fill="#000000" class="cls-1"/>
</svg>
